<svg width="13" height="15" viewBox="0 0 13 15" fill="none" xmlns="http://www.w3.org/2000/svg">
<path d="M0.5 2C0.5 1.17157 1.17157 0.5 2 0.5H5C5.82843 0.5 6.5 1.17157 6.5 2V14.5H2C1.17157 14.5 0.5 13.8284 0.5 13V2Z" stroke="#3E4B5D"/>
<path d="M6.5 4.5H11C11.8284 4.5 12.5 5.17157 12.5 6V13C12.5 13.8284 11.8284 14.5 11 14.5H6.5V4.5Z" stroke="#3E4B5D"/>
<rect x="2.5" y="2.5" width="2" height="2" rx="0.5" stroke="#3E4B5D"/>
<rect x="2.5" y="6.5" width="2" height="2" rx="0.5" stroke="#3E4B5D"/>
<rect x="8.5" y="10.5" width="2" height="2" rx="0.5" stroke="#3E4B5D"/>
<rect x="8.5" y="6.5" width="2" height="2" rx="0.5" stroke="#3E4B5D"/>
<rect x="2.5" y="10.5" width="2" height="2" rx="0.5" stroke="#3E4B5D"/>
</svg>
