<svg width="30" height="25" viewBox="0 0 30 25" fill="none" xmlns="http://www.w3.org/2000/svg">
<path fill-rule="evenodd" clip-rule="evenodd" d="M2 4.00875H7.75862L9.5 0H20.5L22.7586 4.00875H28H30V6.00875V23V25H28H2H0V23V6.00875V4.00875H2ZM9.59302 4.8056L10.8118 2H19.3312L21.0162 4.99049L21.5899 6.00875H22.7586H28V23H2V6.00875H7.75862H9.07038L9.59302 4.8056ZM18.5 14C18.5 15.6569 17.1569 17 15.5 17C13.8431 17 12.5 15.6569 12.5 14C12.5 12.3431 13.8431 11 15.5 11C17.1569 11 18.5 12.3431 18.5 14ZM20.5 14C20.5 16.7614 18.2614 19 15.5 19C12.7386 19 10.5 16.7614 10.5 14C10.5 11.2386 12.7386 9 15.5 9C18.2614 9 20.5 11.2386 20.5 14Z" fill="#3E4B5D"/>
</svg>
